<svg width="3" height="354" viewBox="0 0 3 354" fill="none" xmlns="http://www.w3.org/2000/svg">
<rect x="3.00003" width="354" height="3" transform="rotate(90 3.00003 0)" fill="url(#paint0_linear)"/>
<mask id="mask0" mask-type="alpha" maskUnits="userSpaceOnUse" x="0" y="0" width="3" height="354">
<rect x="3.00003" width="354" height="3" transform="rotate(90 3.00003 0)" fill="url(#paint1_linear)"/>
</mask>
<g mask="url(#mask0)">
<rect x="-86.004" y="49.4463" width="288.475" height="4.29279" transform="rotate(47.027 -86.004 49.4463)" fill="#2958F9"/>
<rect x="-86.004" y="49.4463" width="288.475" height="4.29279" transform="rotate(47.027 -86.004 49.4463)" fill="url(#paint2_linear)"/>
<rect x="-23.1855" y="-9.07758" width="288.475" height="4.29279" transform="rotate(47.027 -23.1855 -9.07758)" fill="#2958F9"/>
<rect x="-23.1855" y="-9.07758" width="288.475" height="4.29279" transform="rotate(47.027 -23.1855 -9.07758)" fill="url(#paint3_linear)"/>
<rect x="-148.822" y="107.97" width="288.475" height="4.29279" transform="rotate(47.027 -148.822 107.97)" fill="#2958F9"/>
<rect x="-148.822" y="107.97" width="288.475" height="4.29279" transform="rotate(47.027 -148.822 107.97)" fill="url(#paint4_linear)"/>
<rect x="-92.2858" y="55.2987" width="288.475" height="4.29279" transform="rotate(47.027 -92.2858 55.2987)" fill="#2958F9"/>
<rect x="-92.2858" y="55.2987" width="288.475" height="4.29279" transform="rotate(47.027 -92.2858 55.2987)" fill="url(#paint5_linear)"/>
<rect x="-29.4673" y="-3.22522" width="288.475" height="4.29279" transform="rotate(47.027 -29.4673 -3.22522)" fill="#2958F9"/>
<rect x="-29.4673" y="-3.22522" width="288.475" height="4.29279" transform="rotate(47.027 -29.4673 -3.22522)" fill="url(#paint6_linear)"/>
<rect x="-155.104" y="113.823" width="288.475" height="4.29279" transform="rotate(47.027 -155.104 113.823)" fill="#2958F9"/>
<rect x="-155.104" y="113.823" width="288.475" height="4.29279" transform="rotate(47.027 -155.104 113.823)" fill="url(#paint7_linear)"/>
<rect x="-98.5677" y="61.1511" width="288.475" height="4.29279" transform="rotate(47.027 -98.5677 61.1511)" fill="#2958F9"/>
<rect x="-98.5677" y="61.1511" width="288.475" height="4.29279" transform="rotate(47.027 -98.5677 61.1511)" fill="url(#paint8_linear)"/>
<rect x="-35.7492" y="2.6272" width="288.475" height="4.29279" transform="rotate(47.027 -35.7492 2.6272)" fill="#2958F9"/>
<rect x="-35.7492" y="2.6272" width="288.475" height="4.29279" transform="rotate(47.027 -35.7492 2.6272)" fill="url(#paint9_linear)"/>
<rect x="-161.386" y="119.675" width="288.475" height="4.29279" transform="rotate(47.027 -161.386 119.675)" fill="#2958F9"/>
<rect x="-161.386" y="119.675" width="288.475" height="4.29279" transform="rotate(47.027 -161.386 119.675)" fill="url(#paint10_linear)"/>
<rect x="-104.85" y="67.0035" width="288.475" height="4.29279" transform="rotate(47.027 -104.85 67.0035)" fill="#2958F9"/>
<rect x="-104.85" y="67.0035" width="288.475" height="4.29279" transform="rotate(47.027 -104.85 67.0035)" fill="url(#paint11_linear)"/>
<rect x="-42.031" y="8.47955" width="288.475" height="4.29279" transform="rotate(47.027 -42.031 8.47955)" fill="#2958F9"/>
<rect x="-42.031" y="8.47955" width="288.475" height="4.29279" transform="rotate(47.027 -42.031 8.47955)" fill="url(#paint12_linear)"/>
<rect x="-167.668" y="125.527" width="288.475" height="4.29279" transform="rotate(47.027 -167.668 125.527)" fill="#2958F9"/>
<rect x="-167.668" y="125.527" width="288.475" height="4.29279" transform="rotate(47.027 -167.668 125.527)" fill="url(#paint13_linear)"/>
<rect x="-111.131" y="72.8559" width="288.475" height="4.29279" transform="rotate(47.027 -111.131 72.8559)" fill="#2958F9"/>
<rect x="-111.131" y="72.8559" width="288.475" height="4.29279" transform="rotate(47.027 -111.131 72.8559)" fill="url(#paint14_linear)"/>
<rect x="-48.3129" y="14.332" width="288.475" height="4.29279" transform="rotate(47.027 -48.3129 14.332)" fill="#2958F9"/>
<rect x="-48.3129" y="14.332" width="288.475" height="4.29279" transform="rotate(47.027 -48.3129 14.332)" fill="url(#paint15_linear)"/>
<rect x="-173.95" y="131.38" width="288.475" height="4.29279" transform="rotate(47.027 -173.95 131.38)" fill="#2958F9"/>
<rect x="-173.95" y="131.38" width="288.475" height="4.29279" transform="rotate(47.027 -173.95 131.38)" fill="url(#paint16_linear)"/>
<rect x="-117.413" y="78.7083" width="288.475" height="4.29279" transform="rotate(47.027 -117.413 78.7083)" fill="#2958F9"/>
<rect x="-117.413" y="78.7083" width="288.475" height="4.29279" transform="rotate(47.027 -117.413 78.7083)" fill="url(#paint17_linear)"/>
<rect x="-54.5948" y="20.1844" width="288.475" height="4.29279" transform="rotate(47.027 -54.5948 20.1844)" fill="#2958F9"/>
<rect x="-54.5948" y="20.1844" width="288.475" height="4.29279" transform="rotate(47.027 -54.5948 20.1844)" fill="url(#paint18_linear)"/>
<rect x="-180.232" y="137.232" width="288.475" height="4.29279" transform="rotate(47.027 -180.232 137.232)" fill="#2958F9"/>
<rect x="-180.232" y="137.232" width="288.475" height="4.29279" transform="rotate(47.027 -180.232 137.232)" fill="url(#paint19_linear)"/>
<rect x="1.94189" y="-32.4871" width="288.475" height="4.29279" transform="rotate(47.027 1.94189 -32.4871)" fill="#2958F9"/>
<rect x="1.94189" y="-32.4871" width="288.475" height="4.29279" transform="rotate(47.027 1.94189 -32.4871)" fill="url(#paint20_linear)"/>
<rect x="-123.695" y="84.5607" width="288.475" height="4.29279" transform="rotate(47.027 -123.695 84.5607)" fill="#2958F9"/>
<rect x="-123.695" y="84.5607" width="288.475" height="4.29279" transform="rotate(47.027 -123.695 84.5607)" fill="url(#paint21_linear)"/>
<rect x="-60.8766" y="26.0367" width="288.475" height="4.29279" transform="rotate(47.027 -60.8766 26.0367)" fill="#2958F9"/>
<rect x="-60.8766" y="26.0367" width="288.475" height="4.29279" transform="rotate(47.027 -60.8766 26.0367)" fill="url(#paint22_linear)"/>
<rect x="-186.514" y="143.085" width="288.475" height="4.29279" transform="rotate(47.027 -186.514 143.085)" fill="#2958F9"/>
<rect x="-186.514" y="143.085" width="288.475" height="4.29279" transform="rotate(47.027 -186.514 143.085)" fill="url(#paint23_linear)"/>
<rect x="-4.33997" y="-26.6348" width="288.475" height="4.29279" transform="rotate(47.027 -4.33997 -26.6348)" fill="#2958F9"/>
<rect x="-4.33997" y="-26.6348" width="288.475" height="4.29279" transform="rotate(47.027 -4.33997 -26.6348)" fill="url(#paint24_linear)"/>
<rect x="-129.977" y="90.413" width="288.475" height="4.29279" transform="rotate(47.027 -129.977 90.413)" fill="#2958F9"/>
<rect x="-129.977" y="90.413" width="288.475" height="4.29279" transform="rotate(47.027 -129.977 90.413)" fill="url(#paint25_linear)"/>
<rect x="-67.1584" y="31.8892" width="288.475" height="4.29279" transform="rotate(47.027 -67.1584 31.8892)" fill="#2958F9"/>
<rect x="-67.1584" y="31.8892" width="288.475" height="4.29279" transform="rotate(47.027 -67.1584 31.8892)" fill="url(#paint26_linear)"/>
<rect x="-192.795" y="148.937" width="288.475" height="4.29279" transform="rotate(47.027 -192.795 148.937)" fill="#2958F9"/>
<rect x="-192.795" y="148.937" width="288.475" height="4.29279" transform="rotate(47.027 -192.795 148.937)" fill="url(#paint27_linear)"/>
<rect x="-10.6218" y="-20.7823" width="288.475" height="4.29279" transform="rotate(47.027 -10.6218 -20.7823)" fill="#2958F9"/>
<rect x="-10.6218" y="-20.7823" width="288.475" height="4.29279" transform="rotate(47.027 -10.6218 -20.7823)" fill="url(#paint28_linear)"/>
<rect x="-136.259" y="96.2654" width="288.475" height="4.29279" transform="rotate(47.027 -136.259 96.2654)" fill="#2958F9"/>
<rect x="-136.259" y="96.2654" width="288.475" height="4.29279" transform="rotate(47.027 -136.259 96.2654)" fill="url(#paint29_linear)"/>
<rect x="-73.4403" y="37.7415" width="288.475" height="4.29279" transform="rotate(47.027 -73.4403 37.7415)" fill="#2958F9"/>
<rect x="-73.4403" y="37.7415" width="288.475" height="4.29279" transform="rotate(47.027 -73.4403 37.7415)" fill="url(#paint30_linear)"/>
<rect x="-16.9037" y="-14.93" width="288.475" height="4.29279" transform="rotate(47.027 -16.9037 -14.93)" fill="#2958F9"/>
<rect x="-16.9037" y="-14.93" width="288.475" height="4.29279" transform="rotate(47.027 -16.9037 -14.93)" fill="url(#paint31_linear)"/>
<rect x="-142.541" y="102.118" width="288.475" height="4.29279" transform="rotate(47.027 -142.541 102.118)" fill="#2958F9"/>
<rect x="-142.541" y="102.118" width="288.475" height="4.29279" transform="rotate(47.027 -142.541 102.118)" fill="url(#paint32_linear)"/>
<rect x="-79.7221" y="43.5939" width="288.475" height="4.29279" transform="rotate(47.027 -79.7221 43.5939)" fill="#2958F9"/>
<rect x="-79.7221" y="43.5939" width="288.475" height="4.29279" transform="rotate(47.027 -79.7221 43.5939)" fill="url(#paint33_linear)"/>
</g>
<defs>
<linearGradient id="paint0_linear" x1="80.5684" y1="1.5" x2="383.969" y2="1.50018" gradientUnits="userSpaceOnUse">
<stop stop-color="#DBC266"/>
<stop offset="0.463542" stop-color="#AE8930"/>
<stop offset="0.827015" stop-color="#CFA43D"/>
<stop offset="0.906096" stop-color="#F5E38B"/>
</linearGradient>
<linearGradient id="paint1_linear" x1="80.5684" y1="1.5" x2="383.969" y2="1.50018" gradientUnits="userSpaceOnUse">
<stop stop-color="#DBC266"/>
<stop offset="0.463542" stop-color="#AE8930"/>
<stop offset="0.827015" stop-color="#CFA43D"/>
<stop offset="0.906096" stop-color="#F5E38B"/>
</linearGradient>
<linearGradient id="paint2_linear" x1="124.868" y1="49.5778" x2="124.834" y2="53.933" gradientUnits="userSpaceOnUse">
<stop offset="1" stop-color="#1B2232"/>
</linearGradient>
<linearGradient id="paint3_linear" x1="187.687" y1="-8.94611" x2="187.652" y2="-4.59084" gradientUnits="userSpaceOnUse">
<stop offset="1" stop-color="#1B2232"/>
</linearGradient>
<linearGradient id="paint4_linear" x1="62.0499" y1="108.102" x2="62.0153" y2="112.457" gradientUnits="userSpaceOnUse">
<stop offset="1" stop-color="#1B2232"/>
</linearGradient>
<linearGradient id="paint5_linear" x1="118.587" y1="55.4302" x2="118.552" y2="59.7854" gradientUnits="userSpaceOnUse">
<stop offset="1" stop-color="#1B2232"/>
</linearGradient>
<linearGradient id="paint6_linear" x1="181.405" y1="-3.09375" x2="181.37" y2="1.26151" gradientUnits="userSpaceOnUse">
<stop offset="1" stop-color="#1B2232"/>
</linearGradient>
<linearGradient id="paint7_linear" x1="55.7681" y1="113.954" x2="55.7335" y2="118.309" gradientUnits="userSpaceOnUse">
<stop offset="1" stop-color="#1B2232"/>
</linearGradient>
<linearGradient id="paint8_linear" x1="112.305" y1="61.2825" x2="112.27" y2="65.6378" gradientUnits="userSpaceOnUse">
<stop offset="1" stop-color="#1B2232"/>
</linearGradient>
<linearGradient id="paint9_linear" x1="175.123" y1="2.75866" x2="175.089" y2="7.11393" gradientUnits="userSpaceOnUse">
<stop offset="1" stop-color="#1B2232"/>
</linearGradient>
<linearGradient id="paint10_linear" x1="49.4862" y1="119.806" x2="49.4516" y2="124.162" gradientUnits="userSpaceOnUse">
<stop offset="1" stop-color="#1B2232"/>
</linearGradient>
<linearGradient id="paint11_linear" x1="106.023" y1="67.1349" x2="105.988" y2="71.4902" gradientUnits="userSpaceOnUse">
<stop offset="1" stop-color="#1B2232"/>
</linearGradient>
<linearGradient id="paint12_linear" x1="168.841" y1="8.61102" x2="168.807" y2="12.9663" gradientUnits="userSpaceOnUse">
<stop offset="1" stop-color="#1B2232"/>
</linearGradient>
<linearGradient id="paint13_linear" x1="43.2044" y1="125.659" x2="43.1698" y2="130.014" gradientUnits="userSpaceOnUse">
<stop offset="1" stop-color="#1B2232"/>
</linearGradient>
<linearGradient id="paint14_linear" x1="99.741" y1="72.9874" x2="99.7064" y2="77.3426" gradientUnits="userSpaceOnUse">
<stop offset="1" stop-color="#1B2232"/>
</linearGradient>
<linearGradient id="paint15_linear" x1="162.56" y1="14.4634" x2="162.525" y2="18.8187" gradientUnits="userSpaceOnUse">
<stop offset="1" stop-color="#1B2232"/>
</linearGradient>
<linearGradient id="paint16_linear" x1="36.9226" y1="131.511" x2="36.8879" y2="135.866" gradientUnits="userSpaceOnUse">
<stop offset="1" stop-color="#1B2232"/>
</linearGradient>
<linearGradient id="paint17_linear" x1="93.4592" y1="78.8397" x2="93.4245" y2="83.195" gradientUnits="userSpaceOnUse">
<stop offset="1" stop-color="#1B2232"/>
</linearGradient>
<linearGradient id="paint18_linear" x1="156.278" y1="20.3159" x2="156.243" y2="24.6711" gradientUnits="userSpaceOnUse">
<stop offset="1" stop-color="#1B2232"/>
</linearGradient>
<linearGradient id="paint19_linear" x1="30.6407" y1="137.364" x2="30.6061" y2="141.719" gradientUnits="userSpaceOnUse">
<stop offset="1" stop-color="#1B2232"/>
</linearGradient>
<linearGradient id="paint20_linear" x1="212.814" y1="-32.3557" x2="212.78" y2="-28.0004" gradientUnits="userSpaceOnUse">
<stop offset="1" stop-color="#1B2232"/>
</linearGradient>
<linearGradient id="paint21_linear" x1="87.1774" y1="84.6921" x2="87.1427" y2="89.0474" gradientUnits="userSpaceOnUse">
<stop offset="1" stop-color="#1B2232"/>
</linearGradient>
<linearGradient id="paint22_linear" x1="149.996" y1="26.1682" x2="149.961" y2="30.5235" gradientUnits="userSpaceOnUse">
<stop offset="1" stop-color="#1B2232"/>
</linearGradient>
<linearGradient id="paint23_linear" x1="24.3589" y1="143.216" x2="24.3242" y2="147.571" gradientUnits="userSpaceOnUse">
<stop offset="1" stop-color="#1B2232"/>
</linearGradient>
<linearGradient id="paint24_linear" x1="206.532" y1="-26.5033" x2="206.498" y2="-22.148" gradientUnits="userSpaceOnUse">
<stop offset="1" stop-color="#1B2232"/>
</linearGradient>
<linearGradient id="paint25_linear" x1="80.8955" y1="90.5445" x2="80.8608" y2="94.8998" gradientUnits="userSpaceOnUse">
<stop offset="1" stop-color="#1B2232"/>
</linearGradient>
<linearGradient id="paint26_linear" x1="143.714" y1="32.0206" x2="143.679" y2="36.3759" gradientUnits="userSpaceOnUse">
<stop offset="1" stop-color="#1B2232"/>
</linearGradient>
<linearGradient id="paint27_linear" x1="18.077" y1="149.068" x2="18.0424" y2="153.424" gradientUnits="userSpaceOnUse">
<stop offset="1" stop-color="#1B2232"/>
</linearGradient>
<linearGradient id="paint28_linear" x1="200.251" y1="-20.6509" x2="200.216" y2="-16.2956" gradientUnits="userSpaceOnUse">
<stop offset="1" stop-color="#1B2232"/>
</linearGradient>
<linearGradient id="paint29_linear" x1="74.6137" y1="96.3969" x2="74.579" y2="100.752" gradientUnits="userSpaceOnUse">
<stop offset="1" stop-color="#1B2232"/>
</linearGradient>
<linearGradient id="paint30_linear" x1="137.432" y1="37.873" x2="137.397" y2="42.2283" gradientUnits="userSpaceOnUse">
<stop offset="1" stop-color="#1B2232"/>
</linearGradient>
<linearGradient id="paint31_linear" x1="193.969" y1="-14.7985" x2="193.934" y2="-10.4433" gradientUnits="userSpaceOnUse">
<stop offset="1" stop-color="#1B2232"/>
</linearGradient>
<linearGradient id="paint32_linear" x1="68.3318" y1="102.249" x2="68.2971" y2="106.605" gradientUnits="userSpaceOnUse">
<stop offset="1" stop-color="#1B2232"/>
</linearGradient>
<linearGradient id="paint33_linear" x1="131.15" y1="43.7254" x2="131.116" y2="48.0807" gradientUnits="userSpaceOnUse">
<stop offset="1" stop-color="#1B2232"/>
</linearGradient>
</defs>
</svg>
